PathFileType	4	(X/Y/Z)	C:\Users\dbl\Desktop\20210112(1)\20210112\bx_y_0_501.trc
DataRate	CameraRate	NumFrames	NumMarkers	Units	OrigDataRate	OrigDataStartFrame	OrigNumFrames
50.00	50.00	       7	43	mm	50.00	1	       603
Frame#	Time	Top.Head			R.Acromium			L.Acromium			Sternum			R.ASIS			L.ASIS			V.Sacral			R.Thigh.Upper			R.Thigh.Front			R.Thigh.Rear			R.Knee.Lat			R.Knee.Med			R.Shank.Upper			R.Shank.Front			R.Shank.Rear			R.Ankle.Lat			R.Midfoot.Lat			R.Toe.Lat			R.Toe.Tip			R.Toe.Med			R.Ankle.Med			R.Midfoot.Sup			R.Heel			L.Thigh.Upper			L.Thigh.Front			L.Thigh.Rear			L.Knee.Lat			L.Knee.Med			L.Shank.Upper			L.Shank.Front			L.Shank.Rear			L.Ankle.Lat			L.Midfoot.Lat			L.Toe.Lat			L.Toe.Tip			L.Toe.Med			L.Ankle.Med			L.Midfoot.Sup			L.Heel			origin1 front left			origin2 front right			origin 3 back right			origin 4 back leftt			
		X1	Y1	Z1	X2	Y2	Z2	X3	Y3	Z3	X4	Y4	Z4	X5	Y5	Z5	X6	Y6	Z6	X7	Y7	Z7	X8	Y8	Z8	X9	Y9	Z9	X10	Y10	Z10	X11	Y11	Z11	X12	Y12	Z12	X13	Y13	Z13	X14	Y14	Z14	X15	Y15	Z15	X16	Y16	Z16	X17	Y17	Z17	X18	Y18	Z18	X19	Y19	Z19	X20	Y20	Z20	X21	Y21	Z21	X22	Y22	Z22	X23	Y23	Z23	X24	Y24	Z24	X25	Y25	Z25	X26	Y26	Z26	X27	Y27	Z27	X28	Y28	Z28	X29	Y29	Z29	X30	Y30	Z30	X31	Y31	Z31	X32	Y32	Z32	X33	Y33	Z33	X34	Y34	Z34	X35	Y35	Z35	X36	Y36	Z36	X37	Y37	Z37	X38	Y38	Z38	X39	Y39	Z39	X40	Y40	Z40	X41	Y41	Z41	X42	Y42	Z42	X43	Y43	Z43	

1	0.000	-680.40277	118.69869	1852.04968	-697.26245	-69.65333	1547.58813	-718.46466	289.81635	1538.37793	-620.09613	110.92618	1434.13049	-593.01111	-1.21281	1049.27869	-583.19720	221.74855	1069.26038	-789.54077	96.49798	1057.95117	-654.05804	-68.50424	863.57745	-586.26154	-2.12902	800.76978	-684.19019	-53.07840	731.11755	-710.28241	-28.03516	612.03241	-692.29419	80.24561	570.81641	-719.37506	-23.96982	566.95685	-669.93732	20.49293	519.60773	-764.73798	-33.32592	488.12350	-766.34039	-4.53304	208.08659	-663.24792	-65.95604	164.27635	-622.18146	-76.80540	159.58807	-559.63586	-39.33883	164.97043	-603.58612	20.52918	165.72005	-716.69336	79.08202	216.00806	-674.90088	57.02615	156.88351	-794.48096	55.90340	175.22375	-640.02203	281.47284	876.90503	-581.58643	215.78104	813.88550	-685.51563	267.03360	716.99768	-727.03680	249.47884	638.71155	-689.91681	144.36513	571.91754	-731.27338	245.49638	575.77637	-676.66241	206.57552	531.99725	-771.82343	253.75323	503.06293	-771.23041	221.61996	205.52205	-667.41077	298.82944	160.00069	-630.15106	305.97440	162.00188	-560.49060	261.06882	166.27020	-594.72272	222.19980	173.52751	-711.45294	151.99197	216.04544	-675.46582	172.51537	157.38718	-796.26990	171.64490	184.47771	-528.01697	304.19867	146.71025	-517.37762	-72.10751	143.07556	-876.09265	-78.76758	141.59384	-882.58820	296.14890	144.63239	
2	0.020	-680.54358	118.61174	1852.05371	-697.36157	-69.63631	1547.55652	-718.76172	289.79144	1538.36133	-619.43408	109.76963	1435.71887	-592.97406	-1.28652	1049.30750	-583.27490	221.66028	1069.17285	-789.52490	96.44417	1057.92737	-654.04974	-68.51292	863.57648	-586.25385	-2.33348	800.83160	-684.34094	-53.13567	731.16473	-710.29620	-28.04789	611.96301	-692.35785	80.21534	570.80371	-719.34033	-23.90845	566.89783	-669.94006	20.48285	519.59302	-764.75549	-33.33350	488.06506	-766.30450	-4.55737	208.11565	-663.30090	-66.02605	164.17632	-622.27081	-76.75219	159.54993	-559.63470	-39.31327	164.98718	-603.56110	20.55132	165.68614	-716.77045	79.08073	215.97682	-674.91180	57.03488	156.85980	-794.51575	55.93504	175.26344	-640.08417	281.38293	876.77106	-581.54413	215.81482	813.88287	-685.50073	267.01929	716.96027	-727.01611	249.42564	638.69604	-689.90015	144.32063	571.91931	-731.30060	245.53992	575.81903	-676.57977	206.49403	532.03247	-771.79663	253.72443	502.98801	-771.31940	221.64529	205.55151	-667.34546	298.83597	160.10291	-630.11908	306.01611	162.02600	-560.51282	261.00897	166.22513	-594.66296	222.15343	173.55231	-711.38940	151.96568	216.10434	-675.47583	172.43092	157.34937	-796.26044	171.62274	184.50807	-528.05682	304.41031	146.71703	-517.42798	-72.03517	143.09662	-876.06146	-78.63681	141.58849	-882.57013	296.20087	144.69560	
3	0.040	-680.68372	118.56800	1852.04651	-697.46143	-69.63934	1547.52478	-719.00787	289.77524	1538.33081	-619.01978	108.98803	1436.73364	-592.96655	-1.38574	1049.33606	-583.35956	221.57526	1069.10913	-789.50604	96.37720	1057.91797	-654.03058	-68.54045	863.58069	-586.23828	-2.54438	800.85907	-684.45172	-53.19827	731.17596	-710.30896	-28.07049	611.92236	-692.36011	80.18474	570.81049	-719.33679	-23.88517	566.87341	-669.94006	20.47470	519.57593	-764.77893	-33.34633	488.02979	-766.28284	-4.56399	208.12476	-663.32288	-66.06991	164.12216	-622.33289	-76.71967	159.51900	-559.63422	-39.28758	164.99397	-603.56500	20.57619	165.66655	-716.80499	79.08726	215.97192	-674.91412	57.03204	156.85439	-794.54956	55.95899	175.28035	-640.11237	281.30997	876.68488	-581.48676	215.80284	813.90198	-685.48438	266.99240	716.93195	-726.98615	249.36383	638.67126	-689.84058	144.30566	571.95605	-731.27710	245.52849	575.82770	-676.46741	206.42720	532.09430	-771.78418	253.71883	502.94843	-771.38147	221.66162	205.56921	-667.29108	298.82373	160.18027	-630.09296	306.04755	162.04559	-560.53979	260.95673	166.19020	-594.62115	222.13347	173.56467	-711.33740	151.94574	216.14626	-675.49988	172.39052	157.31017	-796.25000	171.60402	184.52313	-528.08191	304.56741	146.72528	-517.45886	-71.98351	143.09747	-876.05072	-78.55801	141.59802	-882.55780	296.23322	144.73563	
4	0.060	-680.83105	118.57738	1852.02905	-697.56445	-69.67562	1547.49731	-719.18591	289.76202	1538.29150	-618.90057	108.63827	1437.07642	-592.98645	-1.50962	1049.35852	-583.45520	221.48436	1069.05762	-789.48352	96.30415	1057.92407	-653.99890	-68.59512	863.59460	-586.19727	-2.73239	800.85974	-684.51044	-53.26358	731.15533	-710.31610	-28.09511	611.91351	-692.27563	80.14495	570.82001	-719.36432	-23.90428	566.88135	-669.93433	20.47467	519.56195	-764.80322	-33.37854	488.01535	-766.26660	-4.55066	208.12189	-663.30579	-66.08496	164.11861	-622.36005	-76.70940	159.50256	-559.63525	-39.26341	164.98526	-603.60309	20.59972	165.65974	-716.80994	79.09634	215.99278	-674.90387	57.01769	156.86412	-794.58435	55.97852	175.26523	-640.07544	281.26355	876.66235	-581.41840	215.73357	813.92822	-685.46204	266.94852	716.90820	-726.94556	249.31187	638.65216	-689.75116	144.31339	572.01746	-731.20813	245.45102	575.78729	-676.33362	206.37563	532.17395	-771.77954	253.73270	502.92920	-771.40637	221.66797	205.57446	-667.26245	298.79868	160.21204	-630.08319	306.05707	162.05202	-560.57477	260.92078	166.17455	-594.60803	222.13724	173.56123	-711.30823	151.92874	216.16110	-675.53906	172.39326	157.29163	-796.23798	171.58978	184.52046	-528.08862	304.64990	146.74193	-517.46497	-71.97756	143.07820	-876.06213	-78.53342	141.62094	-882.55157	296.24335	144.74825	
5	0.080	-680.99103	118.62576	1852.01184	-697.67279	-69.74985	1547.48279	-719.30353	289.74124	1538.25439	-618.96204	108.55435	1437.03101	-592.99945	-1.66125	1049.38184	-583.54614	221.39075	1068.99622	-789.46094	96.24396	1057.92993	-653.96283	-68.67317	863.61951	-586.11902	-2.86079	800.86353	-684.52979	-53.31701	731.12756	-710.31830	-28.10441	611.91687	-692.13269	80.08598	570.81018	-719.39203	-23.94296	566.89752	-669.92371	20.48372	519.55542	-764.81171	-33.44263	488.01068	-766.24158	-4.53258	208.12930	-663.26990	-66.08450	164.13744	-622.36243	-76.71711	159.50812	-559.63843	-39.24693	164.96500	-603.65210	20.60980	165.65939	-716.80383	79.09095	216.02597	-674.88843	57.00375	156.87318	-794.61743	55.99376	175.23338	-639.98077	281.22534	876.66913	-581.34900	215.62569	813.92725	-685.43005	266.89954	716.87018	-726.89856	249.30208	638.67017	-689.69781	144.29903	572.04730	-731.12781	245.34671	575.70679	-676.20856	206.32953	532.23315	-771.76129	253.74019	502.89685	-771.40460	221.67195	205.57280	-667.25946	298.78772	160.20799	-630.09198	306.04465	162.04196	-560.60150	260.90652	166.18022	-594.62036	222.14839	173.55313	-711.30737	151.90262	216.15312	-675.57666	172.40591	157.30840	-796.22888	171.58043	184.51193	-528.09052	304.66849	146.76140	-517.45422	-72.01546	143.05447	-876.07294	-78.53973	141.62450	-882.54590	296.23727	144.74121	
6	0.100	-681.15625	118.69743	1852.00269	-697.78754	-69.85838	1547.48291	-719.37848	289.70947	1538.21912	-619.08539	108.58262	1436.89282	-592.97626	-1.85241	1049.41870	-583.60144	221.31746	1068.92834	-789.44861	96.20280	1057.92126	-653.93158	-68.76059	863.65125	-586.01532	-2.93500	800.88202	-684.52856	-53.34493	731.10944	-710.31763	-28.08901	611.91614	-692.00140	80.01929	570.78729	-719.39117	-23.98769	566.90930	-669.91516	20.49207	519.55286	-764.79749	-33.52693	488.01904	-766.22394	-4.52656	208.14510	-663.24316	-66.07941	164.15273	-622.35718	-76.73022	159.52765	-559.64276	-39.24627	164.94475	-603.67542	20.59887	165.66470	-716.78394	79.06054	216.05760	-674.87738	56.99868	156.87274	-794.63904	55.98425	175.21997	-639.87384	281.17014	876.66284	-581.27936	215.50555	813.88782	-685.38904	266.85709	716.80383	-726.84888	249.33870	638.73450	-689.71393	144.23346	572.01276	-731.05322	245.26196	575.61499	-676.10437	206.27861	532.24677	-771.72009	253.72528	502.84967	-771.39716	221.68336	205.56799	-667.26782	298.80057	160.19389	-630.10364	306.03070	162.02594	-560.59851	260.90738	166.19690	-594.64520	222.15810	173.55196	-711.32129	151.86552	216.14143	-675.59900	172.40825	157.33881	-796.23163	171.57391	184.51199	-528.09766	304.64774	146.77115	-517.44067	-72.05695	143.03612	-876.06042	-78.56046	141.58150	-882.53540	296.22031	144.72409	
7	0.120	-681.31494	118.77748	1852.00134	-697.90948	-69.98051	1547.48853	-719.43921	289.66922	1538.18152	-619.21826	108.63756	1436.79285	-592.92456	-2.06146	1049.45386	-583.60327	221.27431	1068.87183	-789.45441	96.16661	1057.89929	-653.90106	-68.83573	863.68518	-585.91547	-2.99114	800.90991	-684.51044	-53.35307	731.11273	-710.30804	-28.05603	611.91425	-691.94299	79.97296	570.76025	-719.36163	-24.04314	566.92212	-669.91296	20.49397	519.55164	-764.77216	-33.60266	488.05017	-766.24371	-4.53137	208.14252	-663.23920	-66.07457	164.16035	-622.35638	-76.72850	159.54379	-559.64459	-39.26017	164.93272	-603.65826	20.57867	165.66934	-716.77216	79.01778	216.06721	-674.87415	56.99823	156.87282	-794.64484	55.93787	175.23830	-639.79565	281.10101	876.64484	-581.20850	215.39301	813.83105	-685.33496	266.80182	716.70923	-726.79535	249.37617	638.81433	-689.73743	144.15326	571.95569	-730.97961	245.20898	575.54449	-676.01202	206.22070	532.22400	-771.66760	253.69713	502.81729	-771.39545	221.70427	205.56500	-667.27802	298.81763	160.17812	-630.10181	306.03995	162.01979	-560.57343	260.90640	166.21101	-594.66718	222.16301	173.55568	-711.32642	151.83266	216.13811	-675.61414	172.41098	157.34776	-796.24561	171.56680	184.52179	-528.10150	304.61609	146.76767	-517.43842	-72.06082	143.02211	-876.02728	-78.58247	141.51292	-882.52399	296.19846	144.70399	
